<svg width="663" height="149" viewBox="0 0 663 149" fill="none" xmlns="http://www.w3.org/2000/svg">
<path d="M-9.73344e-05 3.60019H91.3999V25.6002H25.1999V64.4002H87.5999V85.6002H25.1999V145.2H-9.73344e-05V3.60019ZM134.648 3.60019H159.848V145.2H134.648V3.60019ZM211.094 3.60019H244.494L310.294 109.6H310.694V3.60019H335.894V145.2H303.894L236.694 35.8002H236.294V145.2H211.094V3.60019ZM489.348 36.8002C485.615 31.7335 480.748 28.0669 474.748 25.8002C468.748 23.4002 462.882 22.2002 457.148 22.2002C449.815 22.2002 443.148 23.5335 437.148 26.2002C431.148 28.8669 425.948 32.5335 421.548 37.2002C417.282 41.8669 413.948 47.3335 411.548 53.6002C409.282 59.8669 408.148 66.6669 408.148 74.0002C408.148 81.7335 409.282 88.8002 411.548 95.2002C413.815 101.6 417.015 107.134 421.148 111.8C425.415 116.334 430.482 119.867 436.348 122.4C442.215 124.934 448.815 126.2 456.148 126.2C463.748 126.2 470.482 124.734 476.348 121.8C482.215 118.734 486.948 114.734 490.548 109.8L510.748 124C504.482 131.867 496.815 138 487.748 142.4C478.682 146.667 468.082 148.8 455.948 148.8C444.882 148.8 434.682 147 425.348 143.4C416.148 139.667 408.215 134.534 401.548 128C394.882 121.334 389.682 113.467 385.948 104.4C382.215 95.2002 380.348 85.0669 380.348 74.0002C380.348 62.6669 382.282 52.4669 386.148 43.4002C390.148 34.2002 395.548 26.4002 402.348 20.0002C409.282 13.6002 417.415 8.66686 426.748 5.20019C436.082 1.73352 446.215 0.000193119 457.148 0.000193119C461.682 0.000193119 466.415 0.466858 471.348 1.40019C476.282 2.20018 481.015 3.53352 485.548 5.40018C490.082 7.13352 494.348 9.33352 498.348 12.0002C502.348 14.6669 505.748 17.8669 508.548 21.6002L489.348 36.8002ZM546.406 3.60019H571.606V60.8002H637.806V3.60019H663.006V145.2H637.806V82.4002H571.606V145.2H546.406V3.60019Z" fill="#0F172A"/>
</svg>
